<svg width="601" height="279" viewBox="0 0 601 279" fill="none" xmlns="http://www.w3.org/2000/svg">
<path d="M555.049 262.408C550.212 257.571 546.584 250.316 546.584 243.06C546.584 235.805 549.003 229.758 555.049 223.712C559.886 218.875 565.933 216.457 574.397 216.457C581.653 216.457 587.699 218.875 593.745 223.712C598.582 228.549 601.001 235.805 601.001 243.06C601.001 250.316 598.582 256.362 593.745 262.408C588.908 267.245 581.653 269.664 574.397 269.664C565.933 270.873 559.886 267.245 555.049 262.408Z" fill="white"/>
<path d="M526.026 171.714C528.445 171.714 529.654 172.924 529.654 175.342C529.654 178.97 529.654 182.598 528.445 187.435C527.235 192.272 527.235 198.318 526.026 204.364C524.817 211.62 523.608 218.875 521.189 224.922C518.771 232.177 516.352 238.223 512.724 245.479C509.097 252.734 505.469 258.781 500.632 263.618C495.795 268.455 489.749 272.083 483.702 274.501C477.656 276.92 467.982 278.129 460.726 278.129C452.262 276.92 443.797 273.292 436.541 267.245C429.286 261.199 423.239 253.944 418.402 246.688C413.565 239.433 408.728 228.549 405.101 217.666C401.473 206.783 397.845 195.899 395.427 186.225C393.008 176.551 391.799 166.877 389.38 155.994C386.962 143.901 385.753 134.227 384.543 125.763C383.334 117.298 380.916 107.624 378.497 97.9497C376.078 88.2757 373.66 79.8109 370.032 73.7646C366.404 67.7183 363.986 62.8813 360.358 58.0443C356.73 53.2072 351.893 51.998 347.056 51.998C341.01 51.998 334.964 55.6258 328.918 62.8813C322.871 70.1368 318.034 78.6016 314.406 90.6942C310.779 102.787 307.151 113.67 303.523 125.763C301.105 137.855 298.686 149.948 296.268 163.25C292.64 182.598 295.058 200.736 302.314 217.666C307.151 228.549 311.988 233.386 318.034 233.386C325.29 233.386 330.127 230.968 334.964 227.34C339.801 223.712 342.219 217.666 343.429 209.201C343.429 206.783 344.638 205.573 347.056 205.573C349.475 205.573 350.684 206.783 350.684 209.201C350.684 214.038 349.475 218.875 348.266 223.712C347.056 229.759 344.638 235.805 341.01 241.851C337.382 249.107 333.755 255.153 328.918 259.99C324.081 264.827 318.034 269.664 309.569 272.083C301.105 274.501 291.431 275.71 281.757 274.501C273.292 273.292 264.827 269.664 257.571 263.618C250.316 257.571 244.27 250.316 239.433 243.06C234.596 235.805 229.759 224.922 226.131 214.038C222.503 203.155 218.875 192.272 216.457 182.598C214.038 172.924 212.829 163.25 210.41 152.366C207.992 140.274 206.783 130.6 205.573 122.135C204.364 113.67 201.946 103.996 199.527 94.3219C197.109 84.6479 194.69 76.1831 191.062 70.1368C187.435 64.0905 183.807 60.4628 180.179 55.6258C176.551 50.7887 171.714 49.5795 166.877 49.5795C160.831 49.5795 154.785 53.2072 149.948 59.2535C145.111 65.2998 139.064 72.5553 135.437 82.2294C131.809 90.6942 128.181 101.577 124.553 114.879C120.926 126.972 118.507 139.064 117.298 148.738C114.879 158.412 113.67 169.296 112.461 178.97C110.042 193.481 108.833 209.201 108.833 226.131C108.833 235.805 112.461 244.27 119.716 251.525C126.972 258.781 135.437 262.408 145.111 262.408V266.036H1.20926V262.408C10.8833 262.408 19.3481 258.781 26.6036 251.525C33.8592 244.27 37.4869 235.805 37.4869 226.131V91.9034C37.4869 83.4386 33.8592 76.1831 27.8129 70.1368C21.7666 64.0905 12.0926 61.672 3.62777 62.8813C2.41851 62.8813 1.20926 62.8813 0 60.4628C0 58.0443 0 56.835 2.41851 55.6258C26.6036 48.3702 45.9517 41.1147 62.8813 32.6499C79.8109 24.1851 93.1127 13.3018 103.996 0C105.205 0 106.414 0 107.624 0C108.833 0 108.833 2.41851 108.833 3.62777V83.4386C108.833 87.0664 111.252 89.4849 114.879 90.6942C118.507 91.9034 120.926 89.4849 123.344 85.8571C139.064 44.7425 163.25 24.1851 194.69 21.7666C204.364 20.5573 212.829 21.7666 221.294 22.9759C228.549 24.1851 234.596 26.6036 239.433 30.2314C244.27 33.8592 247.897 37.4869 251.525 43.5332C255.153 49.5795 257.571 54.4165 258.781 59.2535C259.99 64.0905 262.408 70.1368 263.618 76.1831C266.036 83.4386 267.245 93.1127 270.873 105.205C273.292 117.298 275.71 125.763 276.92 130.6C278.129 134.227 280.547 136.646 284.175 135.437C287.803 135.437 290.221 133.018 291.431 129.39C293.849 118.507 296.268 108.833 298.686 100.368C301.105 90.6942 305.942 82.2294 309.569 72.5553C313.197 62.8813 319.243 55.6258 325.29 48.3702C331.336 41.1147 338.592 36.2777 347.056 31.4406C355.521 26.6036 363.986 24.1851 374.869 22.9759C384.543 21.7666 393.008 22.9759 401.473 24.1851C409.938 25.3944 414.775 27.8129 419.612 31.4406C424.449 35.0684 428.076 38.6962 431.704 44.7425C435.332 50.7887 437.751 55.6258 438.96 60.4628C440.169 65.2998 442.588 71.3461 443.797 77.3924C446.215 88.2757 449.843 102.787 454.68 122.135C460.726 146.32 464.354 163.25 466.773 174.133C469.191 185.016 472.819 195.899 476.447 206.783C480.074 217.666 483.702 226.131 487.33 229.759C490.958 233.386 493.376 234.596 497.004 233.386C501.841 232.177 505.469 229.759 509.097 224.922C512.724 220.085 515.143 214.038 516.352 206.783C517.561 199.527 518.771 193.481 519.98 188.644C521.189 183.807 521.189 178.97 521.189 174.133C521.189 172.924 522.398 171.714 526.026 171.714Z" fill="white"/>
</svg>
